<svg  width="100%" viewBox="0 0 1410 244" fill="none" xmlns="http://www.w3.org/2000/svg" preserveAspectRatio="xMidYMax meet">
<path d="M1300.33 192.93C1271.25 192.93 1247.84 181.227 1240.04 161.366H1184C1184.89 154.983 1185.42 148.421 1185.42 141.506V114.552C1197.48 131.93 1219.11 142.038 1244.65 143.811L1322.32 149.84C1339.34 151.259 1346.43 155.869 1346.43 167.573C1346.43 183.355 1329.41 192.93 1300.33 192.93ZM874.038 106.395H787.858V58.5174H873.683C888.224 58.5174 897.09 66.6744 897.09 82.2791C897.09 98.9477 886.805 106.395 874.038 106.395ZM602.02 189.029C564.427 189.029 534.282 161.366 534.282 122.709C534.282 84.407 564.427 55.3256 602.02 55.3256C639.968 55.3256 670.113 84.407 670.113 122.709C670.113 161.366 639.968 189.029 602.02 189.029ZM183 156.046C177.68 174.843 159.238 190.093 128.384 190.093C95.0465 190.093 63.4825 164.913 63.4825 121.645C63.4825 78.3779 92.9186 54.2616 127.674 54.2616C157.11 54.2616 178.035 69.5116 183 88.3081H240.099V156.046H183ZM1345.01 100.366L1261.67 94.3372C1246.42 93.2733 1238.26 87.9535 1238.26 77.6686C1238.26 61.7093 1257.06 50.3605 1283.66 50.3605C1311.68 50.3605 1332.25 62.4186 1340.4 82.2791H1408.5C1395.73 33.6919 1351.04 0 1285.08 0C1235.6 0 1201.2 18.6192 1185.42 45.218V6.73836H1124.07V138.669C1124.07 170.233 1103.85 189.738 1069.81 189.738C1036.11 189.738 1015.54 170.233 1015.54 138.669V6.73836H954.189V44.3314C944.791 20.0378 922.802 6.73836 891.416 6.73836H726.503V82.6337C710.012 35.4651 664.616 0.177323 602.02 0.177323C540.134 0.177323 494.738 34.9331 477.892 81.5697V6.56105H416.892V91.5H300.921V6.73836H240.099V58.1628C220.77 23.9389 179.808 0.354646 128.738 0.354646C56.7442 0.354646 0 47.8779 0 122.355C0 197.186 57.0989 243.645 129.448 243.645C181.936 243.645 221.125 219.884 240.099 185.128V237.616H301.099V150.017H417.07V237.616H478.07V163.671C494.738 209.953 539.956 244 602.198 244C665.148 244 710.366 209.599 726.68 162.785V237.616H788.035V157.82H864.285C882.727 157.82 888.756 165.267 889.82 180.872L891.948 210.308C892.657 222.366 894.076 231.942 897.267 237.616H959.686C956.849 230.523 954.366 223.785 953.657 212.791L951.174 174.488C949.756 150.372 940.18 135.477 915 130.512C934.86 126.788 947.805 114.73 954.366 99.3023V141.506C954.366 207.116 996.57 244 1069.98 244C1127.26 244 1165.38 221.657 1179.39 181.049C1199.08 219.529 1242.52 244 1301.22 244C1362.57 244 1409.03 214.209 1409.03 161.721C1408.85 126.965 1382.25 103.203 1345.01 100.366Z" fill="black"/>
  <text className="logo-text" x="50%" y="37%" text-anchor="middle" font-family="Noto Serif JP" font-size="1.8rem" fill="#6b6e69">(名詞)</text>
  <text className="logo-text" x="50%" y="50%" text-anchor="middle" font-family="Noto Serif JP" font-size="1.8rem" fill="#6b6e69">/節と節の間に繰り返される曲の一部</text>
  <text className="logo-text" x="50%" y="63%" text-anchor="middle" font-family="Noto Serif JP" font-size="1.8rem" fill="#6b6e69">/リードシンガーをサポートするバックヴォーカルの集団</text>
</svg>
